<?xml version="1.0" encoding="UTF-8"?>
<svg id="Title_Page" data-name="Title Page" xmlns="http://www.w3.org/2000/svg" viewBox="0 0 467 266.77">
  <defs>
    <style>
      .cls-1 {
        fill: #fff;
      }
    </style>
  </defs>
  <path class="cls-1" d="M51.81,207.8c-9.49-9.82-14.23-22.69-14.23-38.61v-64.14c.21-15.71,5.12-28.41,14.73-38.12,9.6-9.7,22.25-14.56,37.96-14.56s27.43,4.86,37.14,14.56c9.7,9.71,14.56,22.09,14.56,37.14s-4.8,26.24-14.4,35.51c-9.6,9.27-22.14,13.91-37.63,13.91h-24.22v17.02c0,7.64,2.13,13.8,6.38,18.49,4.25,4.69,10.09,7.04,17.51,7.04,6.54,0,11.94-2.23,16.2-6.71,4.25-4.47,6.6-10.31,7.04-17.51.21-2.83,1.74-4.25,4.58-4.25h19.31c2.83,0,4.25,1.42,4.25,4.25-.87,15.27-6.05,27.54-15.54,36.81-9.49,9.28-21.55,13.91-36.16,13.91-15.49,0-27.98-4.91-37.47-14.73ZM89.94,127.95c7.41,0,13.25-2.13,17.51-6.38,4.25-4.25,6.38-9.87,6.38-16.85,0-7.85-2.18-14.12-6.54-18.82-4.37-4.69-10.26-7.04-17.67-7.04s-13.53,2.29-17.67,6.87c-4.15,4.58-6.22,10.91-6.22,18.98v23.23h24.22Z"/>
  <path class="cls-1" d="M206.02,167.44c-3.06.02-4.59-1.4-4.6-4.23l-.53-109.62c-.08-15.71,4.61-28.55,14.05-38.52C224.38,5.09,236.63.07,251.68,0c15.05-.07,27.35,4.83,36.89,14.71,9.54,9.88,14.35,22.67,14.42,38.38l.53,109.62c.01,2.83-1.51,4.26-4.56,4.28l-18.98.09c-3.06.01-4.59-1.4-4.6-4.23l-.54-110.61c-.04-7.85-2.09-14.12-6.14-18.79-4.06-4.67-9.69-6.99-16.89-6.95-7.2.03-12.81,2.4-16.82,7.12-4.02,4.71-6,10.99-5.96,18.85l.54,110.6c.01,2.83-1.51,4.26-4.56,4.28l-18.98.09Z"/>
  <path class="cls-1" d="M339.65,198.31c-9.82-9.82-14.73-22.47-14.73-37.96,0-8.94,2.18-17.07,6.54-24.38,4.36-7.31,10.47-13.09,18.33-17.34,7.85-4.25,16.8-6.38,26.83-6.38h24.54v-18c0-7.41-2.13-13.42-6.38-18s-9.98-6.87-17.18-6.87c-6.76,0-12.06,2.02-15.87,6.05-3.82,4.04-5.95,9.55-6.38,16.53-.22,1.53-.65,2.57-1.31,3.11-.65.55-1.75.82-3.27.82h-18.98c-1.31,0-2.35-.43-3.11-1.31-.77-.87-1.15-1.96-1.15-3.27,1.09-14.4,6.16-26.12,15.22-35.18,9.05-9.05,20.78-13.58,35.18-13.58,15.27,0,27.6,4.97,36.98,14.89,9.38,9.93,14.07,22.64,14.07,38.12v65.77c0,15.27-4.64,27.71-13.91,37.31-9.28,9.6-21.66,14.4-37.14,14.4s-28.47-4.91-38.29-14.73ZM394.96,179.49c4.14-4.47,6.22-10.52,6.22-18.16v-23.89h-23.56c-7.42,0-13.37,2.18-17.83,6.54-4.47,4.37-6.71,9.82-6.71,16.36,0,7.85,2.18,14.13,6.54,18.82,4.36,4.69,10.36,7.04,18,7.04s13.2-2.23,17.34-6.71Z"/>
  <path class="cls-1" d="M169.58,99.66l18.98-.05c3.05,0,4.59,1.51,4.59,4.57l.27,110.28c.02,7.85,2.05,14.12,6.1,18.8,4.05,4.68,9.67,7.01,16.87,7,7.2-.02,12.81-2.38,16.84-7.08,4.02-4.7,6.03-10.98,6.01-18.83l-.27-110.28c0-3.06,1.51-4.59,4.57-4.59l18.98-.05c3.05,0,4.59,1.51,4.59,4.57l.26,109.3c.04,15.71-4.68,28.53-14.14,38.48-9.47,9.95-21.73,14.94-36.78,14.98-15.05.04-27.34-4.9-36.85-14.8-9.51-9.91-14.29-22.71-14.33-38.42l-.26-109.3c0-3.06,1.51-4.58,4.57-4.59Z"/>
  <ellipse class="cls-1" cx="458" cy="133.37" rx="9" ry="9.5"/>
  <ellipse class="cls-1" cx="9" cy="133.37" rx="9" ry="9.5"/>
</svg>